<?xml version="1.0" encoding="UTF-8"?>
<svg width="100%" height="100%" version="1.1" viewBox="0 0 238.12 33.508" xmlns="http://www.w3.org/2000/svg">
<g transform="translate(8.7854 -6.0171)">
<rect x="-8.7854" y="6.0171" width="238.12" height="33.508" fill="#18181bff" stop-color="#000000" stroke-width="0" style="paint-order:markers fill stroke"/>
<path d="m-8.7854 6.0171h238.12v7.3863h-238.12z" fill="#d69554" stop-color="#000000" stroke-width="0" style="paint-order:markers fill stroke"/>
<path d="m60.871 18.496c11.652-6.6259 30.548-9.9369 49.439-9.933 18.869 0.00388 37.735 3.3149 49.373 9.933 1.5191 0.86381 1.5191 7.6368 0 8.5006v10.737l-49.406 5e-6 -49.406-5e-6v-10.737c-1.5191-0.86381-1.5191-7.6368 0-8.5006z" fill="#18181bff" stop-color="#000000" stroke-width="0" style="paint-order:markers fill stroke"/>
<path d="m78.528 16.304 4.6718-4.519 2.5714 2.5488 0.32997-0.31918 2.4659 2.4443 2.1943-2.1225 1.9268 1.9099 1.9817-1.9168 0.76021 0.75354 2.2472-2.1737 2.1057 2.0872 0.86807-0.83968 0.96795 0.95946 4.93-4.7687 4.4581 4.419 1.257-1.2159 2.01 1.9924 2.0623-1.9948 0.74839 0.74182 1.9718-1.9072 0.88558 0.87782 1.9957-1.9304 3.3339 3.3047 1.9413-1.8778 2.6738 2.6504 3.6571-3.5374 2.6522 2.6289 1.879-1.8175 3.9445 3.6222" fill="#567156" stroke="#b27e43" stroke-width=".26458px"/>
<path d="m-8.7854 36.09h238.12v3.435h-238.12z" fill="#d69554" stop-color="#000000" stroke-width="0" style="paint-order:markers fill stroke"/>
<g fill="#446544" stroke="#18181bff">
<g transform="translate(58.324 4.0849)" stop-color="#000000" style="-inkscape-stroke:none;font-variation-settings:normal">
<g stroke-width=".26612px">
<path transform="matrix(.99944 0 0 .989 .35251 1.1049)" d="m118.39 31.111-1e-5 -4h-1.886v-4.2539h-1.2698v-2.615h0.82539v-2.2857h2.0317v-4.0103h1.8412v-0.69841h2.4127v-2.6563h7.6825v2.6563h1.8856v0.69841h1.3112v4.0103h-0.85825v2.2857h3.2189v2.6359l-1.4366-0.01547v-0.0055 4.2539l-4.1208 1e-6h7.0729v4z" stop-color="#000000" style="-inkscape-stroke:none;font-variation-settings:normal"/>
<path transform="matrix(.99944 0 0 .989 .35251 1.1049)" d="m118.09 17.956h2.0474" stop-color="#000000" style="-inkscape-stroke:none;font-variation-settings:normal"/>
<path transform="matrix(.99944 0 0 .989 .35251 1.1049)" d="m130.03 13.248h-5.9382" stop-color="#000000" style="-inkscape-stroke:none;font-variation-settings:normal"/>
<path transform="matrix(.99944 0 0 .989 .35251 1.1049)" d="m122.34 13.248h0.98106" stop-color="#000000" style="-inkscape-stroke:none;font-variation-settings:normal"/>
<path transform="matrix(.99944 0 0 .989 .35251 1.1049)" d="m119.93 13.946h6.065" stop-color="#000000" style="-inkscape-stroke:none;font-variation-settings:normal"/>
<path transform="matrix(.99944 0 0 .989 .35251 1.1049)" d="m131.91 13.946h-2.7731" stop-color="#000000" style="-inkscape-stroke:none;font-variation-settings:normal"/>
<path transform="matrix(.99944 0 0 .989 .35251 1.1049)" d="m132.36 17.956h-3.5178" stop-color="#000000" style="-inkscape-stroke:none;font-variation-settings:normal"/>
<path transform="matrix(.99944 0 0 .989 .35251 1.1049)" d="m121.62 17.956h3.5243" stop-color="#000000" style="-inkscape-stroke:none;font-variation-settings:normal"/>
<path transform="matrix(.99944 0 0 .989 .35251 1.1049)" d="m116.06 20.242h6.6606" stop-color="#000000" style="-inkscape-stroke:none;font-variation-settings:normal"/>
<path transform="matrix(.99944 0 0 .989 .35251 1.1049)" d="m132.36 20.242h-6.885" stop-color="#000000" style="-inkscape-stroke:none;font-variation-settings:normal"/>
</g>
<path d="m118.67 27.918h5.3378" stop-color="#000000" stroke-width=".26458px" style="-inkscape-stroke:none;font-variation-settings:normal"/>
</g>
<g transform="matrix(.74559 0 0 1.0274 83.193 -.95443)" stop-color="#000000" stroke-width=".30231px" style="-inkscape-stroke:none;font-variation-settings:normal">
<g fill="#446544" stroke="#18181bff" stroke-width=".30231px">
<path d="m89.645 7.492v3.3016h1.929-5.5285v3.8095l6.6857-7e-6h-4.2651l6e-6 3.3551h5.7567-2.6488v2.7401h-12.717v8.2539h7.746l-13.131-0.12697v7.0911h45.591v-6.9641h-13.065 4.3505v-8.2539h-3.0476v-2.7401h-7.7142 12.667v-3.3551h-10.454 6.6445v-3.8095h-3.861 3.3223v-3.3016z" stop-color="#000000" style="-inkscape-stroke:none;font-variation-settings:normal"/>
<path d="m94.774 20.698h9.0689" stop-color="#000000" style="-inkscape-stroke:none;font-variation-settings:normal"/>
<path d="m97.737 28.952h7.273" stop-color="#000000" style="-inkscape-stroke:none;font-variation-settings:normal"/>
<path d="m91.574 10.794h9.0689" stop-color="#000000" style="-inkscape-stroke:none;font-variation-settings:normal"/>
</g>
</g>
<g transform="matrix(.88474 0 0 1 -3.2192 6.0171)" stroke-width=".28129px">
<g transform="translate(-95.482 -6.9659)" stop-color="#000000" style="-inkscape-stroke:none;font-variation-settings:normal">
<path d="m180.06 36.907v-4.9015h-10.766v-2.0168h5.6775v-1.9538h-3.6525v-3.9076h-5.7111v-3.8273h5.5207v-4.853h-2.2733v-1.7647h-5.822v-0.88236h-0.69802v-0.69329h4.2006v-2.1429h-8.5262v-1.9538h-11.224v1.9609l-3.1409-0.00715 1e-5 2.1429h-1.5217l1e-5 0.69328h-1.593v0.88237h1.593v1.7647h-4.3749v5.4019l4.3749-1e-5v2.7759l-2.8717 1.2e-5v4.4101h1.2788v1.9538h-2.0795v2.0168h-12.643v4.9015z" stop-color="#000000" style="-inkscape-stroke:none;font-variation-settings:normal"/>
<path d="m162.34 12.8h-10.678" stop-color="#000000" style="-inkscape-stroke:none;font-variation-settings:normal"/>
<path d="m146.79 9.9705h7.2046" stop-color="#000000" style="-inkscape-stroke:none;font-variation-settings:normal"/>
<path d="m158.01 9.9634h-1.7755" stop-color="#000000" style="-inkscape-stroke:none;font-variation-settings:normal"/>
<path d="m162.34 12.106h-4.6653" stop-color="#000000" style="-inkscape-stroke:none;font-variation-settings:normal"/>
<path d="m143.65 12.106h4.3777" stop-color="#000000" style="-inkscape-stroke:none;font-variation-settings:normal"/>
<path d="m142.13 13.682h1.0534" stop-color="#000000" style="-inkscape-stroke:none;font-variation-settings:normal"/>
<path d="m143.71 12.799h7.2904" stop-color="#000000" style="-inkscape-stroke:none;font-variation-settings:normal"/>
<path d="m142.13 12.799h0.80734" stop-color="#000000" style="-inkscape-stroke:none;font-variation-settings:normal"/>
<path d="m142.13 15.447h11.149" stop-color="#000000" style="-inkscape-stroke:none;font-variation-settings:normal"/>
<path d="m168.86 15.447h-8.179" stop-color="#000000" style="-inkscape-stroke:none;font-variation-settings:normal"/>
<path d="m163.04 13.682h-4.1518" stop-color="#000000" style="-inkscape-stroke:none;font-variation-settings:normal"/>
<path d="m171.32 28.035h-15.668" stop-color="#000000" style="-inkscape-stroke:none;font-variation-settings:normal"/>
<path d="m169.3 29.988h-7.496" stop-color="#000000" style="-inkscape-stroke:none;font-variation-settings:normal"/>
<path d="m147.22 32.005h11.892" stop-color="#000000" style="-inkscape-stroke:none;font-variation-settings:normal"/>
<path d="m169.3 32.005h-3.9961" stop-color="#000000" style="-inkscape-stroke:none;font-variation-settings:normal"/>
</g>
<path d="m46.646 16.658 8.3985-7e-6"/>
<path d="m46.646 13.883 2.5605-4e-6"/>
<path d="m54.794 23.022h-5.421"/>
<path d="m45.053 23.022 2.0685-7e-6"/>
<path d="m45.053 21.069 10.825-1e-5"/>
<path d="m42.973 25.039 7.1504-8e-6"/>
</g>
<g transform="matrix(.58012 0 0 .73029 91.08 9.6564)" stop-color="#000000" stroke-width=".40649px" style="-inkscape-stroke:none;font-variation-settings:normal">
<path d="m211.82-1.1667e-5v7.492l7.3098-1e-7 -13.73 1e-7v7.1111h-4.4446v3.3551h-6.6445v2.7401h2.155v1.1209h-0.85301v2.4346h-7.4975v4.6984h-3.6814v3.1746h2.6039v1.455h-4.9385v2.3345h56.029v-35.916h-26.309z" stop-color="#000000" style="-inkscape-stroke:none;font-variation-settings:normal"/>
<path d="m195.61 24.254h10.999" stop-color="#000000" style="-inkscape-stroke:none;font-variation-settings:normal"/>
<path d="m196.46 20.698h3.2549" stop-color="#000000" style="-inkscape-stroke:none;font-variation-settings:normal"/>
<path d="m196.46 21.819h4.3997" stop-color="#000000" style="-inkscape-stroke:none;font-variation-settings:normal"/>
<path d="m211.5 20.698h14.052" stop-color="#000000" style="-inkscape-stroke:none;font-variation-settings:normal"/>
<path d="m201.27 20.698h8.2158" stop-color="#000000" style="-inkscape-stroke:none;font-variation-settings:normal"/>
<path d="m200.95 17.958h12.167" stop-color="#000000" style="-inkscape-stroke:none;font-variation-settings:normal"/>
<path d="m205.4 14.603h2.4243" stop-color="#000000" style="-inkscape-stroke:none;font-variation-settings:normal"/>
<path d="m188.11 28.952h12.84" stop-color="#000000" style="-inkscape-stroke:none;font-variation-settings:normal"/>
<path d="m205.94 28.952h16.252" stop-color="#000000" style="-inkscape-stroke:none;font-variation-settings:normal"/>
<path d="m187.03 32.127h4.8487" stop-color="#000000" style="-inkscape-stroke:none;font-variation-settings:normal"/>
<path d="m187.03 33.582h19.844" stop-color="#000000" style="-inkscape-stroke:none;font-variation-settings:normal"/>
<path d="m223.98 7.492h14.052" stop-color="#000000" style="-inkscape-stroke:none;font-variation-settings:normal"/>
<path d="m235.25 28.952h3.008" stop-color="#000000" style="-inkscape-stroke:none;font-variation-settings:normal"/>
<path d="m230.27 14.603h7.989" stop-color="#000000" style="-inkscape-stroke:none;font-variation-settings:normal"/>
<path d="m219.4 17.958 18.721 1.1e-5" stop-color="#000000" style="-inkscape-stroke:none;font-variation-settings:normal"/>
<path d="m233.41 24.254h4.8463" stop-color="#000000" style="-inkscape-stroke:none;font-variation-settings:normal"/>
<path d="m210.78 33.582h27.342" stop-color="#000000" style="-inkscape-stroke:none;font-variation-settings:normal"/>
<path d="m221.6 21.819h16.522" stop-color="#000000" style="-inkscape-stroke:none;font-variation-settings:normal"/>
<path d="m225.95 20.698h12.306" stop-color="#000000" style="-inkscape-stroke:none;font-variation-settings:normal"/>
</g>
<g transform="matrix(.7386 0 0 .73633 -8.6529 9.5116)" stop-color="#000000" stroke-width=".35877px" style="-inkscape-stroke:none;font-variation-settings:normal">
<g stop-color="#000000" style="-inkscape-stroke:none;font-variation-settings:normal">
<path d="m0 0h21.841v7.492h7.1111v3.3016h4.6984l0.02096 3.8095h-1.807l2e-6 3.3551h-7.4837v6.2957h5.0793v4.6984h-6.3492v3.1746h11.555v3.7895h-34.666z" stop-color="#000000" style="-inkscape-stroke:none;font-variation-settings:normal"/>
<path d="m-0.13229 14.603h26.441" stop-color="#000000" style="-inkscape-stroke:none;font-variation-settings:normal"/>
<path d="m21.841 7.492h-5.9931" stop-color="#000000" style="-inkscape-stroke:none;font-variation-settings:normal"/>
<path d="m24.381 17.958h-5.8839" stop-color="#000000" style="-inkscape-stroke:none;font-variation-settings:normal"/>
<path d="m33.672 14.603h-3.6141" stop-color="#000000" style="-inkscape-stroke:none;font-variation-settings:normal"/>
<path d="m24.381 24.254h-6.2222" stop-color="#000000" style="-inkscape-stroke:none;font-variation-settings:normal"/>
<path d="m13.936 28.952 9.1745 1.4e-5" stop-color="#000000" style="-inkscape-stroke:none;font-variation-settings:normal"/>
<path d="m-0.13229 24.254h5.1164" stop-color="#000000" style="-inkscape-stroke:none;font-variation-settings:normal"/>
<path d="m-0.13229 28.952h1.8466" stop-color="#000000" style="-inkscape-stroke:none;font-variation-settings:normal"/>
<path d="m5.5873 28.952h2.127" stop-color="#000000" style="-inkscape-stroke:none;font-variation-settings:normal"/>
<path d="m8.1587 32.127h14.952" stop-color="#000000" style="-inkscape-stroke:none;font-variation-settings:normal"/>
<path d="m6.1904 32.127h-6.3227" stop-color="#000000" style="-inkscape-stroke:none;font-variation-settings:normal"/>
<path d="m2.9631 7.492h4.9834" stop-color="#000000" style="-inkscape-stroke:none;font-variation-settings:normal"/>
<path d="m1.5264 7.492h-1.6587" stop-color="#000000" style="-inkscape-stroke:none;font-variation-settings:normal"/>
</g>
<path d="m14.747 10.794h14.205" stop-color="#000000" style="-inkscape-stroke:none;font-variation-settings:normal"/>
</g>
</g>
<rect x="42.222" y="16.371" width="136.11" height="17.585" ry="6.5482" fill="#18181bff" stop-color="#000000" stroke="#d69554" stroke-linecap="square" stroke-width=".26458" style="paint-order:markers fill stroke"/>
<text x="55.052269" y="29.373652" fill="#d69554" font-family="Space Mono" font-size="14.111px" stroke="#d49d5f" stroke-width=".21167" style="font-variant-caps:normal;font-variant-east-asian:normal;font-variant-ligatures:normal;font-variant-numeric:normal;line-height:1.25" xml:space="preserve"><tspan x="55.052269" y="29.373652" dx="0 0 0 0 0 0 0 0 0 0 0 0 0" fill="#d69554" font-family="Space Mono" font-size="14.111px" stroke="#d49d5f" stroke-width=".21167" style="font-variant-caps:normal;font-variant-east-asian:normal;font-variant-ligatures:normal;font-variant-numeric:normal">Books to Read</tspan></text>
</g>
<title>Banner displaying text: Books to Read.</title>
</svg>